<?xml version="1.0" encoding="utf-8"?>
<!-- Generator: Adobe Illustrator 22.0.1, SVG Export Plug-In . SVG Version: 6.00 Build 0)  -->
<svg version="1.1" id="Layer_1" xmlns="http://www.w3.org/2000/svg" xmlns:xlink="http://www.w3.org/1999/xlink" x="0px" y="0px"
	 viewBox="0 0 287 81.6" style="enable-background:new 0 0 287 81.6;" xml:space="preserve">
<style type="text/css">
	.st0{fill:#231F20;}
	.st1{fill:#389BD7;}
</style>
<title>Asset 2</title>
<path class="st0" d="M143.5,30.7"/>
<g>
	<g>
		<path class="st1" d="M61.4,59.1l2.2-0.5c0.9-0.2,1.2-0.5,1.4-1.2l4.6-17.7c0.4-1.6,0.1-1.9-0.6-2l-2-0.5v-1.1h14.7
			c1.1,0,2.2-0.2,2.8-0.3l-1.2,7.6h-1.1c0-1.7-0.2-3.9-0.6-4.8c-0.8-0.6-2.6-1.1-4.8-1.1h-0.3c-1,0-2.2,0.2-3,0.4l-2.4,9.3h4.3
			c1.2-0.8,2.3-2.3,2.8-3.4h0.9l-2.3,9h-0.9c0-1.5,0-3.1-0.8-4h-4.4l-2,7.7c-0.4,1.6,0.1,1.9,0.8,2l2.8,0.5v1.1H61.4V59.1z"/>
		<path class="st1" d="M90.8,43.2c3.6,0,5.5,1.6,5.5,5.5c0,6.1-4.1,11.9-10.1,11.9c-3.6,0-5.6-1.6-5.6-5.5
			C80.7,49,84.8,43.2,90.8,43.2z M87,59.1c2.1,0,4-2.3,5.1-6.3c0.4-1.4,0.5-2.8,0.5-4.3c0-2.3-0.7-3.9-2.6-3.9
			c-2.1,0-4.2,2.4-5.2,6.4c-0.4,1.4-0.5,2.8-0.5,4.2C84.3,57.6,85.1,59.1,87,59.1z"/>
		<path class="st1" d="M98.8,54.9l2.1-6.5c0.4-1.1,0.8-2.5,0.6-3.4c-1.5,0.2-2.5,1.3-3.1,2.3l-0.5-0.9c0.9-1.7,2.6-3.2,4.8-3.2
			c2.9,0,2.4,2.4,1.5,5.1l-2,6.3c-0.2,0.7-0.7,2.1-0.7,2.6c0,0.5,0.2,1,0.9,1c1.9,0,4.3-2.9,6.5-6.6l2-6.6l2.7-1.8h1.3l-1.2,3.3
			l-2.4,8.7c-0.3,1-0.5,2.1-0.5,2.7c0,0.3,0,0.6,0.1,0.8c1.5-0.1,2.7-1.4,3.2-2.4l0.6,0.9c-0.9,1.6-2.8,3.3-5.2,3.3
			c-1.4,0-2.2-1-2.2-2.3c0-1,0.2-2,0.6-3.1l0.3-1c-2.2,4-4.4,6.4-7.1,6.4c-2,0-2.9-1.2-2.9-2.9C98.3,56.9,98.5,55.9,98.8,54.9z"/>
		<path class="st1" d="M119.6,46.9c0.3-1,0.2-1.4-0.7-1.6l-2-0.4v-0.8l4.7-1c1.4,0,1.7,1.4,1.4,2.8l-1.1,4.4c2.3-4.4,5-7.2,7.8-7.2
			c2,0,2.9,1,2.9,2.7c0,0.9-0.3,1.9-0.6,2.9l-2,6.2c-0.3,1.1-0.7,2.2-0.7,2.9c0,0.3,0,0.6,0.1,0.8c1.5-0.1,2.7-1.4,3.3-2.4l0.6,0.9
			c-0.9,1.6-2.8,3.3-5.2,3.3c-1.4,0-2.2-0.9-2.2-2.3c0-1,0.2-2.1,0.7-3.4l2-6.1c0.3-0.8,0.6-1.6,0.6-2.2c0-0.6-0.4-0.9-1-0.9
			c-1.6,0-4.6,2.9-6.7,6.5l-2.1,8h-3.5L119.6,46.9z"/>
		<path class="st1" d="M144.9,43.2c1.3,0,2.2,0.5,2.8,1l1.5-5.3c0.2-0.8,0-1.2-1.1-1.4l-1.8-0.4v-0.8l6-1.1h1.4l-1.3,3.7l-4.4,16.4
			c-0.2,0.9-0.5,2.2-0.5,2.8c0,0.3,0,0.6,0.1,0.8c1.5-0.1,2.7-1.4,3.2-2.4l0.6,0.9c-0.9,1.6-2.9,3.3-5.2,3.3c-1.3,0-2.1-0.9-2.1-2.3
			c0-0.7,0.2-1.9,0.4-2.7c-1.3,2.1-3.4,5-6.4,5c-1.9,0-3.4-1.5-3.4-4.6C134.7,49.5,138.8,43.2,144.9,43.2z M145.1,53.2l2.2-7.7
			c-0.5-0.4-1.3-0.7-2.1-0.7c-3.8,0-7.1,5.3-7.1,10.8c0,2,0.5,2.7,1.6,2.7C141.2,58.2,143.8,55.6,145.1,53.2z"/>
		<path class="st1" d="M162.6,43.2c1.7,0,2.7,0.8,3.3,1.4l2-1.4h1.4l-1.2,3.3l-2.4,8.6c-0.3,1-0.5,2.2-0.5,2.8c0,0.3,0,0.6,0.1,0.8
			c1.5-0.1,2.7-1.4,3.2-2.4l0.6,0.9c-0.9,1.6-2.8,3.3-5.2,3.3c-1.4,0-2.2-0.9-2.2-2.3c0-0.9,0.1-1.7,0.4-2.7c-1.2,2.2-3.4,5-6.4,5
			c-1.9,0-3.4-1.5-3.4-4.6C152.3,49.5,156.4,43.2,162.6,43.2z M162.9,53.1l2.2-7.5c-0.5-0.5-1.3-0.8-2.2-0.8
			c-3.8,0-7.1,5.3-7.1,10.8c0,2,0.5,2.7,1.6,2.7C158.9,58.2,161.5,55.5,162.9,53.1z"/>
		<path class="st1" d="M170.7,44.7l3.7-1l2.9-4.8h1.7l-1.4,5.1h3.8v1.7h-4.2l-1.9,6.9c-0.4,1.3-0.8,2.9-0.8,4c0,0.7,0,1.3,0.3,1.9
			c2,0,3.5-1.8,4-3.1l0.9,0.9c-1.1,2.5-3.2,4.3-6,4.3c-1.6,0-2.8-1-2.8-3.1c0-1.1,0.5-2.8,0.8-4l2.2-7.7h-3.1V44.7z"/>
		<path class="st1" d="M183,55.2l2.6-8.7c0.2-0.8-0.1-1-1-1.2l-1.7-0.4v-0.8l5.3-1h1.8l-1.3,3.6l-2.4,8.5c-0.3,1-0.6,2.1-0.6,2.7
			c0,0.3,0,0.6,0.1,0.9c1.5-0.1,2.7-1.4,3.2-2.4l0.6,0.9c-0.9,1.6-2.8,3.3-5.2,3.3c-1.4,0-2.2-0.9-2.2-2.3
			C182.5,57.4,182.7,56.2,183,55.2z"/>
		<path class="st1" d="M201.3,43.2c3.6,0,5.5,1.6,5.5,5.5c0,6.1-4.1,11.9-10.1,11.9c-3.6,0-5.6-1.6-5.6-5.5
			C191.2,49,195.3,43.2,201.3,43.2z M197.6,59.1c2.1,0,4-2.3,5.1-6.3c0.4-1.4,0.5-2.8,0.5-4.3c0-2.3-0.7-3.9-2.6-3.9
			c-2.1,0-4.2,2.4-5.2,6.4c-0.4,1.4-0.5,2.8-0.5,4.2C194.9,57.6,195.6,59.1,197.6,59.1z"/>
		<path class="st1" d="M211.9,46.9c0.3-1,0.2-1.4-0.7-1.6l-2-0.4v-0.8l4.7-1c1.4,0,1.7,1.4,1.4,2.8l-1.1,4.4c2.3-4.4,5-7.2,7.8-7.2
			c2,0,2.9,1,2.9,2.7c0,0.9-0.3,1.9-0.6,2.9l-2,6.2c-0.3,1.1-0.7,2.2-0.7,2.9c0,0.3,0,0.6,0.1,0.8c1.5-0.1,2.7-1.4,3.3-2.4l0.6,0.9
			c-0.9,1.6-2.8,3.3-5.2,3.3c-1.4,0-2.2-0.9-2.2-2.3c0-1,0.2-2.1,0.7-3.4l2-6.1c0.3-0.8,0.6-1.6,0.6-2.2c0-0.6-0.4-0.9-1-0.9
			c-1.6,0-4.6,2.9-6.7,6.5l-2.1,8h-3.5L211.9,46.9z"/>
	</g>
	<path class="st1" d="M189.8,37.1c1.2,0,2,0.8,2,2c0,1.2-0.8,2-2,2c-1.2,0-2-0.8-2-2C187.9,37.9,188.7,37.1,189.8,37.1z"/>
</g>
<g>
	<path d="M139.9,25.5c1.2,0,2,0.8,2,2c0,1.2-0.8,2-2,2c-1.2,0-2-0.8-2-2C137.9,26.4,138.8,25.5,139.9,25.5z"/>
	<path d="M159.5,22"/>
	<g>
		<path d="M13.5,4.5C16,4.5,18.1,5,20,5.7l0.8-0.9h0.8L22,13h-1.1c-0.3-1.7-0.9-4.2-1.7-5.4C18,6.7,16,5.7,13.6,5.7
			c-6.8,0-9,5.4-9,10.8c0,7.2,3.4,11.6,8.4,11.6c2.6,0,4.5-0.8,5.4-1.5c0.9-1.1,2.2-4.2,2.6-5.7h1.1l-1.4,7.3
			c-1.5,0.6-4.5,1.4-7.7,1.4c-8.4,0-13-5-13-13C0,9,5.9,4.5,13.5,4.5z"/>
		<path d="M35,28.2l1.2-0.3c0.8-0.2,1.1-0.3,1.1-0.9v-8.2c0-2.3-0.6-4.5-3.4-4.5c-2,0-3.4,1.3-3.9,2.5V27c0,0.6,0.2,0.7,1.1,0.9
			l1.3,0.3v0.9h-8.3v-0.9l1.2-0.3c0.8-0.2,1.1-0.3,1.1-0.9V7.7c0-0.7-0.2-1.1-1.4-1.6l-0.9-0.4V4.9l5-0.9h1.3
			c-0.3,2.6-0.3,4.2-0.3,5.1v6.5c1-2,2.8-3.5,5.5-3.5c3.7,0,5.5,2.3,5.5,5.8V27c0,0.6,0.2,0.7,1.1,0.9l1.3,0.3v0.9H35V28.2z"/>
		<path d="M50.9,20.4l3.3-0.9v-1.9c0-2.7-1.3-3.9-3.6-3.9c-0.8,0-2,0.2-2.6,0.6l0.3,0.6c0.2,0.5,0.5,1,0.5,1.6c0,1.2-0.7,1.9-2,1.9
			c-1.1,0-1.8-0.7-1.8-1.9c0-1.2,1.1-2.2,2-2.7l0.7-0.4c1.2-0.7,2.8-1.3,4.3-1.3c3.7,0,5.8,1.4,5.8,5.1v7c0,0.9,0,2.4,0.3,3.2
			c0.6,0.3,1.6,0.4,2.5,0.4v0.8c-1.1,0.6-2.6,1-3.5,1c-1.7,0-2.7-1-2.9-2.6h0c-0.9,1.4-2.7,2.6-5.1,2.6c-2.9,0-4.7-1.6-4.7-4.3
			C44.5,22.3,47.7,21.2,50.9,20.4z M54.2,25.9v-5.2l-2.5,0.7C50,21.9,48,22.8,48,24.8c0,1.8,1.1,2.6,2.8,2.6
			C52.3,27.5,53.6,26.7,54.2,25.9z"/>
		<path d="M61.9,28.2l1.2-0.3c0.8-0.2,1.1-0.3,1.1-0.9V15.8c0-0.7-0.2-1.1-1.5-1.6L62,13.9V13l4.8-0.9h1V16c0.8-2.1,2.5-3.9,4.3-3.9
			c1.3,0,2.1,0.8,2.1,2c0,1.5-1.1,2.3-1.6,2.5c-0.3-0.6-1-1.3-1.9-1.3c-1.3,0-2.3,0.8-2.9,1.7v9.8c0,0.7,0.2,0.8,1.3,1l2,0.4v0.9
			h-9.2V28.2z"/>
		<path d="M74.8,28.2l1.2-0.3c0.8-0.2,1.1-0.3,1.1-0.9V7.7c0-0.7-0.2-1.1-1.4-1.6l-0.9-0.4V4.9l5-0.9H81c-0.3,2.6-0.3,4.2-0.3,5.1
			V27c0,0.6,0.2,0.7,1.1,0.9l1.3,0.3v0.9h-8.3V28.2z"/>
		<path d="M92.3,12.1c3.8,0,6.4,2.1,6.4,5.6c0,0.5-0.1,1.5-0.3,1.9l-10.5-0.3v0.7c0,4.5,2.2,7,5.8,7c1.9,0,3.5-0.9,4.5-2.2l0.4,0.3
			c-1.2,2.5-3.3,4.3-6.8,4.3c-4.6,0-7.5-3.6-7.5-8.7C84.2,15.8,87.4,12.1,92.3,12.1z M88,18.3l6.9-0.3c0.1-0.3,0.2-0.8,0.2-1.1
			c0-2.4-1.1-3.5-2.9-3.5C89.7,13.4,88.2,15.6,88,18.3z"/>
		<path d="M101.2,23.3h1c0.4,1.5,0.9,3,1.4,3.8c0.9,0.8,2.2,1.1,3.3,1.1c1.8,0,3-1,3-2.7c0-1.7-1-2.5-2.5-3.1l-2.7-1
			c-1.8-0.7-3.4-2.1-3.4-4.5c0-3.3,3.1-4.9,6.4-4.9c1.6,0,3.1,0.4,3.8,0.8l0.6-0.8h0.7v5.4H112c-0.2-0.9-0.6-2.4-0.9-3
			c-0.7-0.7-1.8-1.2-3.3-1.2c-1.6,0-2.9,0.9-2.9,2.7c0,1.6,0.8,2.2,2.3,2.8l2.5,1c2,0.8,3.9,2,3.9,4.7c0,3.7-3.2,5.2-6.6,5.2
			c-1.9,0-3.2-0.4-4.2-1l-0.6,1h-0.9L101.2,23.3z"/>
		<path d="M146.8,28.1l2.3-0.5c0.9-0.2,1.1-0.3,1.1-0.9V7.6c0-0.6-0.2-0.7-1.1-0.9l-2.3-0.5V5.1h10.8v1.1l-2.3,0.5
			c-0.9,0.2-1.1,0.3-1.1,0.9v19.1c0,0.6,0.2,0.7,1.1,0.9l2.3,0.5v1.1h-10.8V28.1z"/>
		<path d="M180.1,31.8c-8.4,4.3-12.7-5.4-15-8.8c-1.3-2-5.5-8-5.5-8l7.5-7c0.9-0.8,1.6-1.1,2.6-1.4l1.2-0.3V5.1h-8.5v1.1l1.5,0.3
			c0.8,0.2,1,0.7,0.5,1.2l-8.8,9L161,24c5.5,7.8,11,15,19.6,8.5L180.1,31.8"/>
		<path d="M177.9,20.4l3.3-0.9v-1.9c0-2.7-1.3-3.9-3.6-3.9c-0.8,0-2,0.2-2.6,0.6l0.3,0.6c0.2,0.5,0.5,1,0.5,1.6c0,1.2-0.7,1.9-2,1.9
			c-1.1,0-1.8-0.7-1.8-1.9c0-1.2,1.1-2.2,2-2.7l0.7-0.4c1.2-0.7,2.8-1.3,4.3-1.3c3.7,0,5.8,1.4,5.8,5.1v7c0,0.9,0,2.4,0.3,3.2
			c0.6,0.3,1.6,0.4,2.5,0.4v0.8c-1.1,0.6-2.6,1-3.5,1c-1.7,0-2.7-1-2.9-2.6h0c-0.9,1.4-2.7,2.6-5.1,2.6c-2.9,0-4.7-1.6-4.7-4.3
			C171.4,22.3,174.7,21.2,177.9,20.4z M181.2,25.9v-5.2l-2.5,0.7c-1.7,0.5-3.8,1.4-3.8,3.4c0,1.8,1.1,2.6,2.8,2.6
			C179.3,27.5,180.6,26.7,181.2,25.9z"/>
		<path d="M189.6,15.4c0-0.5-0.1-0.7-1-1.1l-1.2-0.4v-0.9l5.2-0.6h0.9c-0.3,1.8-0.3,3.7-0.3,4.5v5.6c0,2.7,0.6,4.7,3.2,4.7
			c2,0,3.4-1.1,4-2.4v-9c0-0.9-0.2-1-1.1-1.4l-1.4-0.5v-0.9l5.4-0.7h1.1c-0.3,2.1-0.3,4.1-0.3,5.1v9c0,0.5,0.3,0.7,1,1l1.1,0.4v0.8
			l-5.8,0.9V26c-0.6,1.6-2.5,3.6-5.5,3.6c-3.6,0-5.4-2.2-5.4-6V15.4z"/>
		<path d="M208.2,13h2v-1c0-5.2,2.9-8,7.4-8c1.8,0,3.2,0.8,3.2,2.4c0,1.2-1,1.8-1.8,1.8c-1.1,0-2.4-1-1.8-3.1
			c-1.6,0-3.2,1.2-3.2,5.1V13h4.1v1.8H214v12.2c0,0.5,0.1,0.7,1.1,0.9l2.3,0.4v0.9H208v-0.9l1.2-0.3c0.7-0.2,1.1-0.3,1.1-0.9V14.7
			h-2.6L208.2,13z"/>
		<path d="M219.6,28.2l1.2-0.3c0.8-0.2,1.1-0.3,1.1-0.9V15.8c0-0.7-0.2-1.1-1.5-1.6l-0.7-0.3V13l4.8-0.9h1v3.5c1-2,2.8-3.5,5.5-3.5
			c2.9,0,4.4,1.4,5.1,3.5h0.1c1-2,2.8-3.5,5.5-3.5c3.6,0,5.3,2.3,5.3,5.8V27c0,0.6,0.2,0.7,1.1,0.9l1.3,0.3v0.9h-8.3v-0.9l1.2-0.3
			c0.8-0.2,1.1-0.3,1.1-0.9v-8.2c0-2.3-0.4-4.5-3.2-4.5c-2,0-3.3,1.3-3.9,2.5V27c0,0.6,0.2,0.7,1.1,0.9l1.3,0.3v0.9h-8.3v-0.9
			l1.2-0.3c0.8-0.2,1.1-0.3,1.1-0.9v-8.2c0-2.3-0.3-4.5-3.2-4.5c-2,0-3.4,1.3-3.9,2.5V27c0,0.6,0.2,0.7,1.1,0.9l1.3,0.3v0.9h-8.3
			V28.2z"/>
		<path d="M257,20.4l3.3-0.9v-1.9c0-2.7-1.3-3.9-3.6-3.9c-0.8,0-2,0.2-2.6,0.6l0.3,0.6c0.2,0.5,0.5,1,0.5,1.6c0,1.2-0.7,1.9-2,1.9
			c-1.1,0-1.8-0.7-1.8-1.9c0-1.2,1.1-2.2,2-2.7l0.7-0.4c1.2-0.7,2.8-1.3,4.3-1.3c3.7,0,5.8,1.4,5.8,5.1v7c0,0.9,0,2.4,0.3,3.2
			c0.6,0.3,1.6,0.4,2.5,0.4v0.8c-1.1,0.6-2.6,1-3.5,1c-1.7,0-2.7-1-2.9-2.6h0c-0.9,1.4-2.7,2.6-5.1,2.6c-2.9,0-4.7-1.6-4.7-4.3
			C250.6,22.3,253.8,21.2,257,20.4z M260.3,25.9v-5.2l-2.5,0.7c-1.7,0.5-3.8,1.4-3.8,3.4c0,1.8,1.1,2.6,2.8,2.6
			C258.4,27.5,259.7,26.7,260.3,25.9z"/>
		<path d="M267.6,28.2l1.2-0.3c0.8-0.2,1.1-0.3,1.1-0.9V15.8c0-0.7-0.2-1-1.5-1.6l-0.7-0.3V13l4.8-0.9h1v3.5c1-2,2.8-3.5,5.5-3.5
			c3.7,0,5.5,2.3,5.5,5.8V27c0,0.6,0.2,0.7,1.1,0.9l1.3,0.3v0.9h-8.3v-0.9l1.2-0.3c0.8-0.2,1.1-0.3,1.1-0.9v-8.2
			c0-2.3-0.6-4.5-3.4-4.5c-2,0-3.4,1.3-3.9,2.5V27c0,0.6,0.2,0.7,1.1,0.9l1.3,0.3v0.9h-8.3V28.2z"/>
		<path d="M121.5,28.3l1.4-0.3c0.6-0.2,0.8-0.2,0.8-0.6V14.2c0-0.4-0.1-0.5-0.8-0.6l-1.4-0.3v-0.9h11.3c0.8,0,1.7-0.1,2.2-0.2
			l0.5,5.3h-0.8c-0.4-1.3-1-2.7-1.4-3.3c-0.8-0.5-2.4-0.8-3.7-0.8h-0.3c-0.6,0-1.5,0.1-2,0.2v6.1h2.8c0.8-0.4,1.4-1.7,1.6-2.5h0.6
			v6.4h-0.6c-0.3-1-0.9-2.1-1.6-2.6h-2.8v6.9c0.7,0.1,1.6,0.2,2.3,0.2h0.5c1.2,0,2.6-0.2,3.3-0.7c0.6-0.6,1.4-2.4,1.7-3.6h0.8
			l-0.7,5.3h-13.7V28.3z"/>
	</g>
	<path d="M139.9,25.5c1.2,0,2,0.8,2,2c0,1.2-0.8,2-2,2c-1.2,0-2-0.8-2-2C137.9,26.4,138.8,25.5,139.9,25.5z"/>
</g>
<g>
	<path d="M0.5,81.1l2.1-6.2H3l2.1,6.2H4.5L4,79.4H1.6l-0.6,1.7H0.5z M1.8,78.9h2l-1-3.1L1.8,78.9z"/>
	<path d="M9.7,76.6c0,0.9,0.5,0.9,1.5,1.1c1.2,0.2,1.9,0.4,1.9,1.6c0,0.8-0.4,1.8-2.2,1.8c-0.6,0-1.3-0.2-1.7-0.3v-0.5
		c0.4,0.1,0.9,0.3,1.7,0.3c1.3,0,1.6-0.6,1.6-1.3c0-0.9-0.4-1-1.4-1.2c-1.4-0.2-2-0.5-2-1.5c0-0.7,0.3-1.7,2-1.7
		c0.7,0,1.2,0.1,1.6,0.3v0.5c-0.6-0.2-1-0.3-1.6-0.3C10,75.4,9.7,76,9.7,76.6z"/>
	<path d="M18.8,79.1V75h0.6v4.2c0,1.7-1.4,2-2.1,2c-0.7,0-2.1-0.3-2.1-2V75h0.6v4.1c0,1.5,1.1,1.6,1.6,1.6S18.8,80.5,18.8,79.1z"/>
	<path d="M22,81.1h-0.6V75h1.9c1.5,0,2,0.9,2,1.8s-0.5,1.8-2,1.8H22V81.1z M22,78.1h1.4c1.1,0,1.4-0.7,1.4-1.3s-0.2-1.3-1.4-1.3H22
		V78.1z"/>
	<path d="M27.8,81.1h-0.6V75h1.9c1.5,0,2,0.9,2,1.8s-0.5,1.8-2,1.8h-1.3V81.1z M27.8,78.1h1.4c1.1,0,1.4-0.7,1.4-1.3
		s-0.2-1.3-1.4-1.3h-1.4V78.1z"/>
	<path d="M32.9,78c0-1.6,0.3-3.1,2.3-3.1c2,0,2.3,1.5,2.3,3.1c0,1.6-0.3,3.1-2.3,3.1C33.1,81.1,32.9,79.6,32.9,78z M36.8,78
		c0-1.5-0.2-2.6-1.7-2.6c-1.5,0-1.7,1.2-1.7,2.6c0,1.5,0.2,2.6,1.7,2.6C36.6,80.6,36.8,79.5,36.8,78z"/>
	<path d="M40,81.1h-0.6V75h1.9c1.5,0,2,0.7,2,1.7c0,0.8-0.3,1.4-1.1,1.6l1.5,2.8H43l-1.4-2.7c-0.1,0-0.2,0-0.3,0H40V81.1z M40,77.9
		h1.5c1.1,0,1.2-0.6,1.2-1.2c0-0.6-0.2-1.2-1.2-1.2H40V77.9z"/>
	<path d="M47.1,75.5v5.6h-0.6v-5.6h-1.7V75h3.9v0.5H47.1z"/>
	<path d="M50.8,81.1V75h0.6v6.1H50.8z"/>
	<path d="M57.5,81.1l-3.3-5l0,5h-0.6V75h0.4l3.3,5l0-5h0.6v6.1H57.5z"/>
	<path d="M60,78c0-1.7,0.6-3.1,2.4-3.1c0.8,0,1.4,0.2,1.7,0.3v0.6c-0.6-0.3-1-0.4-1.7-0.4c-1.3,0-1.8,1.1-1.8,2.6
		c0,1.5,0.5,2.6,1.8,2.6c0.5,0,1,0,1.3-0.2v-2.1h-1.3v-0.5h1.8v2.9c-0.4,0.2-1,0.3-1.9,0.3C60.6,81.1,60,79.7,60,78z"/>
	<path d="M68.7,78c0-1.6,0.3-3.1,2.3-3.1c2,0,2.3,1.5,2.3,3.1c0,1.6-0.3,3.1-2.3,3.1C69,81.1,68.7,79.6,68.7,78z M72.6,78
		c0-1.5-0.2-2.6-1.7-2.6c-1.5,0-1.7,1.2-1.7,2.6c0,1.5,0.2,2.6,1.7,2.6C72.4,80.6,72.6,79.5,72.6,78z"/>
	<path d="M75.8,81.1h-0.6V75h1.9c1.5,0,2,0.7,2,1.7c0,0.8-0.3,1.4-1.1,1.6l1.5,2.8h-0.6l-1.4-2.7c-0.1,0-0.2,0-0.3,0h-1.4V81.1z
		 M75.8,77.9h1.5c1.1,0,1.2-0.6,1.2-1.2c0-0.6-0.2-1.2-1.2-1.2h-1.5V77.9z"/>
	<path d="M81.2,78c0-1.7,0.6-3.1,2.4-3.1c0.8,0,1.4,0.2,1.7,0.3v0.6c-0.6-0.3-1-0.4-1.7-0.4c-1.3,0-1.8,1.1-1.8,2.6
		c0,1.5,0.5,2.6,1.8,2.6c0.5,0,1,0,1.3-0.2v-2.1h-1.3v-0.5h1.8v2.9c-0.4,0.2-1,0.3-1.9,0.3C81.7,81.1,81.2,79.7,81.2,78z"/>
	<path d="M87.1,81.1l2.1-6.2h0.4l2.1,6.2h-0.6l-0.6-1.7h-2.3l-0.6,1.7H87.1z M88.4,78.9h2l-1-3.1L88.4,78.9z"/>
	<path d="M97.4,81.1l-3.3-5l0,5h-0.6V75H94l3.3,5l0-5h0.6v6.1H97.4z"/>
	<path d="M100.1,81.1V75h0.6v6.1H100.1z"/>
	<path d="M102.8,81.1v-0.4l3.5-5.2l-3.3,0V75h4v0.4l-3.5,5.2l3.6,0v0.5H102.8z"/>
	<path d="M108.6,81.1l2.1-6.2h0.4l2.1,6.2h-0.6l-0.6-1.7h-2.3l-0.6,1.7H108.6z M109.9,78.9h2l-1-3.1L109.9,78.9z"/>
	<path d="M116.2,75.5v5.6h-0.6v-5.6H114V75h3.9v0.5H116.2z"/>
	<path d="M120,81.1V75h0.6v6.1H120z"/>
	<path d="M122.7,78c0-1.6,0.3-3.1,2.3-3.1c2,0,2.3,1.5,2.3,3.1c0,1.6-0.3,3.1-2.3,3.1C123,81.1,122.7,79.6,122.7,78z M126.7,78
		c0-1.5-0.2-2.6-1.7-2.6c-1.5,0-1.7,1.2-1.7,2.6c0,1.5,0.2,2.6,1.7,2.6C126.5,80.6,126.7,79.5,126.7,78z"/>
	<path d="M133.1,81.1l-3.3-5l0,5h-0.6V75h0.4l3.3,5l0-5h0.6v6.1H133.1z"/>
	<path d="M138,78c0-1.6,0.3-3.1,2.3-3.1c2,0,2.3,1.5,2.3,3.1c0,1.6-0.3,3.1-2.3,3.1C138.3,81.1,138,79.6,138,78z M141.9,78
		c0-1.5-0.2-2.6-1.7-2.6c-1.5,0-1.7,1.2-1.7,2.6c0,1.5,0.2,2.6,1.7,2.6C141.7,80.6,141.9,79.5,141.9,78z"/>
	<path d="M147.7,78.1h-2.6v2.9h-0.6V75h3.4v0.5h-2.9v2.1h2.6V78.1z"/>
	<path d="M154,75.5v5.6h-0.6v-5.6h-1.7V75h3.9v0.5H154z"/>
	<path d="M161.2,81.1v-2.9h-3v2.9h-0.6V75h0.6v2.7h3V75h0.6v6.1H161.2z"/>
	<path d="M167.2,78.1h-2.7v2.4h3v0.5h-3.5V75h3.5v0.5h-3v2.1h2.7V78.1z"/>
	<path d="M172.4,81.1h-0.6V75h1.9c1.5,0,2,0.9,2,1.8s-0.5,1.8-2,1.8h-1.3V81.1z M172.4,78.1h1.4c1.1,0,1.4-0.7,1.4-1.3
		s-0.2-1.3-1.4-1.3h-1.4V78.1z"/>
	<path d="M177.8,81.1V75h0.6v6.1H177.8z"/>
	<path d="M182.6,75.5v5.6h-0.6v-5.6h-1.7V75h3.9v0.5H182.6z"/>
	<path d="M188.1,75.5v5.6h-0.6v-5.6h-1.7V75h3.9v0.5H188.1z"/>
	<path d="M192.1,76.6c0,0.9,0.5,0.9,1.5,1.1c1.2,0.2,1.9,0.4,1.9,1.6c0,0.8-0.4,1.8-2.2,1.8c-0.6,0-1.3-0.2-1.7-0.3v-0.5
		c0.4,0.1,0.9,0.3,1.7,0.3c1.3,0,1.6-0.6,1.6-1.3c0-0.9-0.4-1-1.4-1.2c-1.4-0.2-2-0.5-2-1.5c0-0.7,0.3-1.7,2-1.7
		c0.7,0,1.2,0.1,1.6,0.3v0.5c-0.6-0.2-1-0.3-1.6-0.3C192.4,75.4,192.1,76,192.1,76.6z"/>
	<path d="M197.5,75h1.9c1.4,0,1.9,0.7,1.9,1.6c0,0.5-0.3,1-0.8,1.3c0.7,0.2,1,0.9,1,1.5c0,0.9-0.5,1.7-2,1.7h-2V75z M199.5,75.5
		h-1.5v2.1h1.5c0.9,0,1.1-0.5,1.1-1.1C200.7,76,200.5,75.5,199.5,75.5z M198.1,80.5h1.5c1.1,0,1.4-0.6,1.4-1.2
		c0-0.8-0.3-1.2-1.3-1.2h-1.5V80.5z"/>
	<path d="M207.2,79.1V75h0.6v4.2c0,1.7-1.4,2-2.1,2c-0.7,0-2.1-0.3-2.1-2V75h0.6v4.1c0,1.5,1.1,1.6,1.6,1.6S207.2,80.5,207.2,79.1z"
		/>
	<path d="M210.4,81.1h-0.6V75h1.9c1.5,0,2,0.7,2,1.7c0,0.8-0.3,1.4-1.1,1.6l1.5,2.8h-0.6l-1.4-2.7c-0.1,0-0.2,0-0.3,0h-1.4V81.1z
		 M210.4,77.9h1.5c1.1,0,1.2-0.6,1.2-1.2c0-0.6-0.2-1.2-1.2-1.2h-1.5V77.9z"/>
	<path d="M215.7,78c0-1.7,0.6-3.1,2.4-3.1c0.8,0,1.4,0.2,1.7,0.3v0.6c-0.6-0.3-1-0.4-1.7-0.4c-1.3,0-1.8,1.1-1.8,2.6
		c0,1.5,0.5,2.6,1.8,2.6c0.5,0,1,0,1.3-0.2v-2.1h-1.3v-0.5h1.8v2.9c-0.4,0.2-1,0.3-1.9,0.3C216.3,81.1,215.7,79.7,215.7,78z"/>
	<path d="M225.8,81.1v-2.9h-3v2.9h-0.6V75h0.6v2.7h3V75h0.6v6.1H225.8z"/>
	<path d="M234,78.1h-2.6v2.9h-0.6V75h3.4v0.5h-2.9v2.1h2.6V78.1z"/>
	<path d="M236.2,78c0-1.6,0.3-3.1,2.3-3.1c2,0,2.3,1.5,2.3,3.1c0,1.6-0.3,3.1-2.3,3.1C236.4,81.1,236.2,79.6,236.2,78z M240.1,78
		c0-1.5-0.2-2.6-1.7-2.6c-1.5,0-1.7,1.2-1.7,2.6c0,1.5,0.2,2.6,1.7,2.6C239.9,80.6,240.1,79.5,240.1,78z"/>
	<path d="M246.5,79.1V75h0.6v4.2c0,1.7-1.4,2-2.1,2c-0.7,0-2.1-0.3-2.1-2V75h0.6v4.1c0,1.5,1.1,1.6,1.6,1.6S246.5,80.5,246.5,79.1z"
		/>
	<path d="M253,81.1l-3.3-5l0,5h-0.6V75h0.4l3.3,5l0-5h0.6v6.1H253z"/>
	<path d="M255.6,81.1V75h1.7c2,0,2.6,1.3,2.6,3c0,1.7-0.6,3-2.6,3H255.6z M256.1,80.5h1.1c1.5,0,1.9-1.1,1.9-2.5
		c0-1.5-0.5-2.5-1.9-2.5h-1.1V80.5z"/>
	<path d="M261.2,81.1l2.1-6.2h0.4l2.1,6.2h-0.6l-0.6-1.7h-2.3l-0.6,1.7H261.2z M262.5,78.9h2l-1-3.1L262.5,78.9z"/>
	<path d="M268.8,75.5v5.6h-0.6v-5.6h-1.7V75h3.9v0.5H268.8z"/>
	<path d="M272.6,81.1V75h0.6v6.1H272.6z"/>
	<path d="M275.4,78c0-1.6,0.3-3.1,2.3-3.1c2,0,2.3,1.5,2.3,3.1c0,1.6-0.3,3.1-2.3,3.1C275.6,81.1,275.4,79.6,275.4,78z M279.3,78
		c0-1.5-0.2-2.6-1.7-2.6c-1.5,0-1.7,1.2-1.7,2.6c0,1.5,0.2,2.6,1.7,2.6C279.1,80.6,279.3,79.5,279.3,78z"/>
	<path d="M285.8,81.1l-3.3-5l0,5H282V75h0.4l3.3,5l0-5h0.6v6.1H285.8z"/>
</g>
</svg>
